<?xml version="1.0" standalone="no"?>
<!DOCTYPE svg PUBLIC "-//W3C//DTD SVG 20010904//EN"
 "http://www.w3.org/TR/2001/REC-SVG-20010904/DTD/svg10.dtd">
<svg version="1.0" xmlns="http://www.w3.org/2000/svg"
 width="500.000000pt" height="500.000000pt" viewBox="0 0 500.000000 500.000000"
 preserveAspectRatio="xMidYMid meet">
<metadata>
Created by potrace 1.14, written by Peter Selinger 2001-2017
</metadata>
<g transform="translate(0.000000,500.000000) scale(0.100000,-0.100000)"
fill="#000000" stroke="none">
<path d="M3545 4971 c-125 -31 -392 -176 -700 -381 l-120 -80 -73 3 c-89 5
-101 14 -67 53 29 34 55 85 55 109 0 37 -33 76 -70 82 -53 8 -482 -157 -796
-308 l-104 -49 -87 65 c-103 76 -218 134 -358 180 -238 79 -421 65 -529 -39
-128 -125 -144 -292 -92 -916 3 -30 8 -89 11 -130 8 -92 13 -126 25 -166 8
-23 6 -43 -10 -90 -26 -74 -80 -291 -80 -321 0 -29 -10 -34 -82 -40 -175 -14
-418 -123 -418 -187 0 -24 36 -56 58 -51 10 2 43 19 73 38 82 52 176 83 289
93 l65 6 1 -71 1 -70 -51 -17 c-94 -31 -170 -66 -241 -111 -75 -49 -166 -137
-191 -185 -14 -27 -14 -32 1 -54 22 -34 60 -31 93 7 93 109 199 184 318 222
27 9 57 19 66 22 12 5 17 -4 23 -47 9 -65 12 -85 20 -116 5 -20 -3 -34 -46
-75 -74 -74 -135 -172 -154 -249 -9 -37 24 -73 58 -64 21 5 34 21 59 74 17 37
41 80 52 96 21 30 67 75 76 76 3 0 12 -15 19 -33 60 -136 276 -308 472 -376
l47 -16 -45 -104 c-58 -138 -115 -303 -147 -432 -33 -129 -36 -146 -42 -189
-3 -19 -9 -60 -15 -90 -29 -166 -21 -352 22 -464 27 -73 105 -192 166 -253 93
-93 236 -155 463 -198 57 -11 137 -27 170 -35 88 -20 238 -51 270 -56 19 -3
49 -9 67 -14 79 -21 243 5 337 52 40 20 40 20 82 0 71 -35 152 -45 301 -39 76
4 158 11 183 17 46 11 339 104 375 119 11 5 52 21 90 36 141 56 289 157 362
247 l36 45 121 1 c67 1 130 3 141 6 12 2 48 7 80 11 73 8 236 48 290 71 234
96 390 233 463 407 23 55 26 77 28 197 2 121 -1 142 -23 205 -38 107 -104 194
-183 242 -83 50 -216 74 -328 58 -98 -13 -239 -126 -299 -241 -54 -101 -74
-245 -43 -303 20 -39 11 -48 -92 -92 -56 -24 -105 -45 -108 -47 -3 -1 -7 10
-8 25 -3 39 -76 309 -132 488 -59 189 -142 395 -162 403 -25 11 4 34 100 81
180 89 287 167 379 276 l42 50 58 -60 c32 -33 69 -82 82 -108 34 -70 91 -85
112 -30 15 39 -41 135 -131 223 -54 53 -76 82 -73 95 3 16 10 109 12 173 1 13
20 11 106 -15 87 -25 187 -81 250 -138 70 -65 81 -70 110 -51 38 25 32 56 -22
110 -90 92 -213 159 -359 196 -43 11 -81 25 -84 30 -4 6 -8 36 -9 67 -1 31 -5
61 -8 67 -10 15 175 -1 242 -22 33 -11 83 -30 110 -44 46 -24 53 -25 78 -12
32 17 36 53 10 80 -31 31 -173 86 -258 99 -22 4 -73 8 -113 10 -40 2 -75 5
-77 7 -1 1 -5 23 -8 48 -14 102 -29 180 -52 260 -13 47 -26 99 -28 115 -3 17
-15 73 -27 125 -18 80 -22 135 -25 345 -5 328 -15 514 -31 600 -2 11 -9 47
-14 80 -25 153 -70 279 -122 336 -55 63 -157 80 -283 50z"/>
</g>
</svg>
