<svg xmlns="http://www.w3.org/2000/svg" xmlns:xlink="http://www.w3.org/1999/xlink" width="53.87" height="43.61" zoomAndPan="magnify" viewBox="0 0 375 374.999991" preserveAspectRatio="xMidYMid meet" version="1.0"><path fill="#180303" d="M 371.503906 292.53125 C 370.210938 302.515625 364.34375 311.277344 356.953125 317.90625 C 349.484375 324 341.101562 329.183594 331.882812 332.078125 C 323.121094 335.355469 313.75 336.269531 304.605469 337.410156 C 298.96875 337.714844 293.253906 338.324219 287.691406 337.183594 C 279.308594 349.375 265.824219 356.839844 252.183594 361.792969 C 245.554688 363.925781 239.078125 366.363281 232.449219 368.34375 C 222.621094 372.308594 211.953125 372.839844 201.515625 372.765625 C 195.039062 372.6875 188.257812 371.394531 182.847656 367.8125 C 179.648438 371.011719 174.621094 371.621094 170.351562 372.992188 C 163.722656 374.972656 156.714844 374.058594 150.160156 372.535156 C 141.019531 371.011719 132.027344 368.726562 122.960938 366.746094 C 111.683594 364.917969 100.332031 362.402344 90.199219 357.070312 C 82.273438 352.648438 76.789062 345.105469 72.292969 337.410156 C 65.96875 326.515625 65.96875 313.484375 67.566406 301.449219 C 70.160156 278.664062 77.246094 256.492188 86.921875 235.769531 C 76.863281 233.027344 67.414062 227.921875 59.644531 220.910156 C 58.882812 220.074219 57.96875 219.160156 56.824219 218.242188 C 53.851562 215.273438 51.1875 211.996094 48.902344 208.492188 C 47.984375 206.890625 47.222656 205.214844 46.460938 203.460938 C 41.96875 207.578125 37.699219 212.988281 35.644531 219.921875 C 35.109375 221.671875 33.507812 222.738281 31.832031 222.738281 C 31.453125 222.738281 31.070312 222.664062 30.691406 222.585938 C 28.558594 221.976562 27.414062 219.769531 28.023438 217.632812 C 30.996094 207.730469 37.320312 200.414062 43.644531 195.308594 C 42.347656 190.507812 41.511719 185.558594 40.976562 180.832031 C 31.148438 183.421875 18.574219 188.832031 10.5 200.261719 C 9.738281 201.40625 8.519531 201.9375 7.222656 201.9375 C 6.460938 201.9375 5.621094 201.710938 4.9375 201.253906 C 3.109375 199.957031 2.726562 197.519531 3.945312 195.691406 C 13.773438 181.59375 29.015625 175.421875 40.289062 172.679688 C 40.0625 168.640625 40.0625 164.984375 40.136719 161.859375 C 30.765625 162.089844 19.640625 164.222656 10.269531 171.460938 C 9.507812 171.996094 8.671875 172.300781 7.832031 172.300781 C 6.613281 172.300781 5.46875 171.765625 4.707031 170.777344 C 3.335938 169.023438 3.71875 166.507812 5.394531 165.214844 C 16.671875 156.527344 29.777344 154.089844 40.59375 153.9375 C 40.671875 153.402344 40.671875 153.175781 40.671875 153.175781 C 42.5 142.886719 45.089844 132.679688 48.75 122.851562 C 46.613281 117.820312 46.539062 112.335938 46.003906 107 C 45.472656 99.382812 44.863281 91.839844 44.253906 84.21875 C 43.71875 69.742188 41.128906 54.886719 45.242188 40.714844 C 47.679688 31.035156 56.597656 23.949219 66.425781 22.960938 C 80.519531 21.4375 94.234375 26.769531 106.808594 32.558594 C 113.207031 35.683594 119 40.027344 124.410156 44.523438 C 125.019531 45.4375 126.085938 44.597656 126.769531 44.292969 C 140.636719 37.054688 184.296875 18.464844 191.761719 18.160156 C 194.734375 18.082031 197.628906 20.292969 197.707031 23.339844 C 198.316406 28.292969 194.203125 31.949219 191.304688 35.457031 C 195.421875 36.523438 199.839844 37.285156 204.03125 36.675781 C 222.164062 25.167969 239.765625 12.519531 259.652344 3.988281 C 266.128906 1.777344 273.214844 0.0273438 280.070312 1.550781 C 287.386719 3.226562 290.738281 10.769531 292.949219 17.09375 C 296.300781 29.894531 298.585938 43 298.816406 56.257812 C 300.035156 69.742188 298.738281 83.230469 299.652344 96.714844 C 299.652344 104.03125 302.472656 110.964844 303.539062 118.203125 C 304.605469 124.449219 307.195312 130.316406 308.035156 136.640625 C 308.339844 138.394531 309.101562 143.269531 309.863281 149.59375 C 319.996094 149.058594 331.960938 150.507812 343.007812 157.214844 C 344.914062 158.355469 345.445312 160.792969 344.304688 162.699219 C 343.542969 163.917969 342.246094 164.605469 340.875 164.605469 C 340.1875 164.605469 339.425781 164.453125 338.816406 163.996094 C 329.675781 158.433594 319.464844 157.136719 310.703125 157.519531 C 311.082031 161.175781 311.386719 164.984375 311.539062 168.792969 C 322.742188 170.625 337.140625 175.347656 347.65625 187.386719 C 349.101562 189.0625 348.949219 191.578125 347.273438 193.023438 C 346.511719 193.710938 345.597656 194.015625 344.683594 194.015625 C 343.542969 194.015625 342.476562 193.558594 341.710938 192.644531 C 333.253906 182.964844 321.445312 178.777344 311.769531 177.023438 C 311.769531 182.964844 311.386719 188.453125 310.398438 192.71875 C 316.570312 197.0625 322.589844 203.234375 326.246094 211.769531 C 327.082031 213.824219 326.167969 216.109375 324.113281 217.023438 C 323.578125 217.253906 323.046875 217.328125 322.589844 217.328125 C 321.0625 217.328125 319.539062 216.414062 318.929688 214.890625 C 316.265625 208.492188 311.691406 203.613281 306.96875 200.109375 C 304.835938 203.003906 302.472656 205.75 300.035156 208.414062 C 290.511719 217.328125 278.699219 223.347656 266.890625 228.378906 C 268.492188 229.902344 269.480469 231.804688 270.394531 233.789062 C 277.785156 250.09375 282.664062 267.464844 287.234375 284.761719 C 288.453125 289.5625 290.207031 294.363281 290.664062 299.3125 C 295.996094 296.496094 301.863281 294.589844 307.273438 291.921875 C 304.148438 286.894531 304.148438 280.648438 305.367188 275.085938 C 307.730469 264.722656 314.816406 255.808594 323.882812 250.472656 C 331.808594 246.359375 341.253906 246.4375 349.5625 249.332031 C 363.351562 253.371094 371.808594 267.921875 371.734375 281.867188 C 371.734375 285.21875 372.265625 288.953125 371.503906 292.53125 Z M 371.503906 292.53125 " fill-opacity="1" fill-rule="nonzero"/><path fill="#e78585" d="M 248.453125 40.253906 C 245.785156 43.226562 242.890625 45.96875 240.527344 49.246094 C 261.785156 57.09375 280.605469 72.257812 291.273438 92.449219 C 290.738281 89.859375 291.957031 87.191406 291.957031 84.601562 C 293.101562 78.351562 292.1875 72.027344 292.339844 65.78125 C 291.578125 51.378906 290.738281 36.902344 287.460938 22.808594 C 273.441406 18.84375 255.082031 33.933594 248.453125 40.253906 Z M 52.632812 61.210938 C 54.003906 78.046875 54.917969 94.886719 56.140625 111.648438 C 59.339844 104.640625 64.214844 98.164062 69.015625 91.992188 C 76.027344 83.914062 82.65625 75.457031 90.503906 68.144531 C 79.148438 58.390625 67.109375 48.941406 53.167969 43.152344 C 52.253906 49.09375 52.328125 55.191406 52.632812 61.210938 Z M 52.632812 61.210938 " fill-opacity="1" fill-rule="nonzero"/><path fill="#ffffff" d="M 327.921875 324.078125 C 327.84375 312.417969 320.835938 302.058594 311.921875 295.046875 C 309.710938 297.332031 306.738281 298.246094 303.691406 298.933594 C 307.578125 304.113281 311.386719 309.523438 312.988281 315.847656 C 314.207031 319.429688 314.816406 323.621094 313.0625 327.199219 C 318.246094 327.199219 323.046875 325.144531 327.921875 324.078125 Z M 353.902344 261.445312 C 349.941406 257.558594 344 257.863281 338.816406 257.253906 C 328.683594 256.265625 319.082031 262.4375 313.75 270.742188 C 310.703125 275.085938 309.253906 281.179688 311.617188 286.132812 C 317.789062 284.226562 323.882812 279.65625 330.742188 281.257812 C 343.160156 283.542969 354.054688 293.523438 356.722656 306.019531 C 359.238281 300 362.894531 294.058594 362.972656 287.277344 C 363.65625 278.054688 361.75 267.390625 353.902344 261.445312 Z M 295.007812 175.726562 C 292.796875 175.957031 290.890625 174.28125 290.664062 172.148438 C 290.433594 169.9375 292.035156 168.03125 294.242188 167.804688 C 294.625 167.726562 297.824219 167.5 302.625 167.726562 C 302.398438 164.757812 302.09375 161.632812 301.710938 158.433594 C 294.320312 159.726562 289.292969 161.785156 289.214844 161.859375 C 287.15625 162.699219 284.871094 161.707031 284.035156 159.726562 C 283.195312 157.671875 284.109375 155.382812 286.167969 154.546875 C 286.699219 154.316406 292.339844 152.03125 300.644531 150.585938 C 299.195312 141.289062 297.292969 132.070312 295.769531 125.210938 C 295.007812 121.402344 294.167969 117.59375 293.101562 113.78125 C 293.101562 113.707031 293.101562 113.628906 293.101562 113.628906 C 291.273438 107.304688 288.910156 101.210938 285.863281 95.421875 C 279.917969 84.449219 272.679688 73.855469 262.546875 66.238281 C 254.777344 61.132812 246.777344 55.722656 237.554688 53.894531 C 235.957031 53.664062 233.898438 53.285156 233.441406 51.378906 C 232.296875 48.789062 234.964844 46.960938 236.71875 45.589844 C 250.738281 30.578125 261.632812 23.492188 267.652344 20.292969 C 270.699219 18.691406 274.054688 17.703125 277.480469 17.320312 C 280.070312 17.09375 283.347656 16.863281 286.015625 17.167969 C 284.949219 13.742188 281.976562 11.148438 278.472656 10.617188 C 277.710938 10.539062 276.949219 10.386719 276.1875 10.3125 C 264.453125 10.769531 254.320312 17.398438 244.640625 23.417969 C 235.804688 28.445312 227.652344 34.464844 219.347656 40.253906 C 221.023438 41.019531 223.460938 42.160156 225.515625 43.53125 C 227.5 44.828125 226.203125 47.875 223.917969 47.417969 C 199.308594 42.390625 203.269531 44.675781 190.773438 43 C 187.648438 42.847656 184.449219 43.074219 181.476562 41.933594 C 178.277344 40.636719 177.515625 35.683594 180.105469 33.472656 C 181.78125 31.339844 185.289062 31.1875 186.660156 28.980469 C 173.933594 31.492188 162.960938 39.035156 150.617188 42.617188 C 134.695312 48.941406 116.941406 52.902344 104.21875 65.171875 C 101.472656 64.484375 102.386719 60.597656 103.988281 59.152344 C 108.101562 55.113281 114.121094 52.828125 117.324219 48.179688 C 101.703125 40.5625 85.246094 34.085938 67.796875 32.636719 C 64.292969 32.40625 60.480469 31.949219 57.207031 33.472656 C 55.683594 35.152344 55.683594 37.664062 54.082031 39.417969 C 61.167969 40.484375 67.414062 44.066406 73.585938 47.417969 C 79.757812 51.378906 86.386719 54.886719 91.570312 60.21875 C 94.234375 63.417969 99.1875 66.007812 98.425781 70.808594 C 97.132812 71.875 95.835938 70.808594 94.617188 70.277344 C 87.683594 75.914062 82.578125 83.382812 76.789062 90.085938 C 67.949219 99.6875 60.863281 110.886719 56.140625 123.003906 C 52.40625 130.164062 50.042969 138.011719 49.128906 146.089844 C 49.128906 146.089844 48.367188 149.136719 47.679688 154.089844 C 55.835938 154.699219 61.546875 156.296875 62.082031 156.449219 C 64.214844 157.0625 65.433594 159.269531 64.75 161.402344 C 64.140625 163.535156 61.929688 164.757812 59.796875 164.070312 C 59.644531 163.996094 54.386719 162.546875 46.917969 162.011719 C 46.765625 164.910156 46.765625 168.03125 46.917969 171.386719 C 51.71875 170.625 54.996094 170.546875 55.453125 170.546875 C 55.453125 170.546875 55.53125 170.546875 55.53125 170.546875 C 57.738281 170.546875 59.492188 172.300781 59.492188 174.507812 C 59.492188 176.71875 57.738281 178.546875 55.605469 178.546875 C 55.453125 178.546875 52.40625 178.625 47.757812 179.386719 C 48.292969 183.117188 49.128906 186.929688 50.347656 190.660156 C 55.988281 187.15625 60.480469 185.558594 60.9375 185.40625 C 62.996094 184.644531 65.28125 185.785156 66.042969 187.84375 C 66.804688 189.898438 65.664062 192.1875 63.605469 192.949219 C 63.53125 192.949219 58.882812 194.625 53.394531 198.28125 C 59.1875 210.394531 69.855469 221.292969 88.597656 226.777344 C 88.597656 226.777344 88.671875 226.777344 88.671875 226.777344 C 89.742188 227.082031 90.808594 227.386719 91.949219 227.691406 C 99.722656 230.433594 107.570312 233.027344 115.492188 235.160156 C 118.617188 235.996094 121.894531 236.910156 125.171875 236.53125 C 127.152344 236.148438 132.941406 236.148438 131.875 237.597656 C 130.199219 241.179688 125.933594 242.015625 122.425781 242.015625 C 112.675781 242.703125 103.457031 238.96875 94.160156 236.835938 C 91.1875 245.828125 86.996094 254.511719 84.558594 263.730469 C 81.816406 270.664062 80.902344 278.132812 78.769531 285.21875 C 76.636719 293.597656 75.644531 302.132812 75.570312 310.742188 C 75.414062 318.132812 75.796875 325.90625 79.453125 332.457031 C 82.351562 339.925781 87.226562 346.78125 93.929688 351.125 C 103.457031 356.308594 113.96875 360.878906 125.09375 360.117188 C 122.199219 358.289062 120.828125 355.011719 119.074219 352.269531 C 114.730469 345.5625 112.292969 337.945312 109.398438 330.554688 C 109.320312 328.800781 110.464844 325.371094 112.828125 326.363281 C 114.882812 326.894531 115.875 328.953125 116.636719 330.707031 C 120.597656 339.847656 125.171875 348.992188 131.953125 356.382812 C 135.988281 360.726562 141.324219 362.859375 146.960938 364.382812 C 146.960938 364.382812 166.085938 372.15625 172.183594 362.785156 C 172.792969 361.867188 173.097656 360.800781 173.25 359.507812 C 176.980469 346.628906 176.980469 332.839844 177.820312 319.503906 C 178.734375 316.6875 183.304688 316.457031 183.535156 319.808594 C 184.90625 329.792969 184.066406 340.535156 186.734375 350.820312 C 188.5625 357.753906 194.582031 362.859375 201.746094 363.242188 C 201.746094 363.242188 201.820312 363.242188 201.820312 363.242188 C 201.820312 363.242188 203.800781 363.621094 208.832031 362.480469 C 215.839844 363.242188 223.460938 362.097656 229.175781 357.601562 C 241.0625 350.058594 245.859375 335.660156 247.539062 322.402344 C 247.765625 319.65625 252.109375 318.4375 252.945312 321.410156 C 253.25 332.152344 250.585938 342.746094 247.003906 352.800781 C 246.46875 354.324219 245.175781 355.394531 244.183594 356.6875 C 247.613281 354.78125 251.5 354.171875 255.082031 352.726562 C 262.699219 349.679688 270.167969 345.488281 275.578125 339.164062 C 280.988281 334.285156 282.664062 326.742188 282.664062 319.734375 C 282.664062 301.828125 278.089844 284.226562 272.832031 267.238281 C 269.480469 255.121094 265.136719 243.3125 260.492188 231.578125 C 251.421875 235.007812 242.585938 238.96875 233.289062 241.789062 C 227.347656 243.464844 220.414062 244.835938 214.851562 241.253906 C 213.023438 239.503906 210.886719 234.929688 217.898438 235.464844 C 220.566406 237.519531 224.070312 236.835938 227.042969 236.074219 C 241.519531 231.957031 255.003906 225.023438 268.644531 218.929688 C 274.433594 215.882812 279.996094 212.53125 285.328125 208.796875 C 289.445312 205.824219 292.566406 201.710938 296.148438 198.128906 C 296.835938 196.984375 297.445312 195.765625 298.054688 194.546875 C 292.71875 192.035156 288.605469 190.96875 288.453125 190.96875 C 286.320312 190.433594 284.949219 188.300781 285.480469 186.167969 C 286.015625 184.03125 288.148438 182.660156 290.28125 183.195312 C 290.738281 183.269531 295.234375 184.339844 301.023438 187.082031 C 301.101562 186.929688 301.101562 186.777344 301.175781 186.699219 C 302.246094 184.035156 302.703125 180.222656 302.777344 175.726562 C 298.207031 175.5 295.160156 175.726562 295.007812 175.726562 Z M 133.398438 167.878906 C 131.496094 168.488281 130.273438 171.003906 128.066406 171.386719 C 122.960938 172.910156 118.695312 168.488281 117.171875 163.996094 C 115.035156 156.679688 115.644531 148.144531 120.21875 141.820312 C 120.371094 141.898438 120.75 142.125 120.980469 142.203125 C 120.902344 141.972656 120.828125 141.59375 120.828125 141.441406 C 125.246094 138.011719 132.5625 140.527344 134.085938 145.9375 C 136.371094 152.71875 136.980469 160.792969 133.324219 167.195312 C 133.324219 167.347656 133.398438 167.652344 133.398438 167.878906 Z M 210.125 182.433594 C 209.515625 191.957031 200.832031 201.558594 190.773438 200.1875 C 186.050781 199.5 182.773438 195.765625 180.03125 192.414062 C 179.726562 196.984375 174.316406 199.578125 170.277344 200.261719 C 163.113281 200.644531 156.867188 195.15625 154.125 188.910156 C 153.285156 186.777344 152.371094 184.109375 153.972656 182.128906 C 156.332031 181.0625 158.925781 182.433594 160.296875 184.492188 C 163.113281 188.070312 166.695312 192.71875 171.953125 191.578125 C 175.6875 189.519531 175.992188 184.566406 176.601562 180.832031 C 172.257812 176.414062 169.515625 169.402344 172.257812 163.460938 C 175.152344 160.03125 180.867188 161.9375 182.925781 165.367188 C 185.289062 170.164062 184.980469 175.878906 183.078125 180.757812 C 185.136719 184.03125 186.886719 187.691406 190.085938 190.050781 C 192.527344 192.109375 196.488281 192.109375 198.695312 189.746094 C 201.746094 187.234375 202.660156 183.117188 205.097656 180.148438 C 206.546875 178.242188 210.582031 179.15625 210.125 182.433594 Z M 236.640625 163.382812 C 233.519531 168.183594 224.753906 168.566406 222.394531 162.851562 C 218.734375 156.449219 219.878906 148.601562 222.164062 141.972656 C 223.078125 139.15625 224.753906 136.335938 227.574219 135.039062 C 232.222656 133.441406 236.945312 137.023438 238.316406 141.363281 C 240.527344 148.375 241.0625 156.984375 236.640625 163.382812 Z M 236.640625 163.382812 " fill-opacity="1" fill-rule="nonzero"/><path fill="#ff5757" d="M 260.644531 231.578125 C 260.644531 231.578125 251.957031 258.09375 185.058594 263.882812 C 118.160156 269.675781 94.082031 236.683594 94.082031 236.683594 C 208.527344 263.65625 260.644531 231.578125 260.644531 231.578125 Z M 260.644531 231.578125 " fill-opacity="1" fill-rule="nonzero"/><path fill="#f2e3bf" d="M 305.902344 313.410156 C 303.921875 309.21875 301.789062 304.570312 297.75 301.980469 C 295.464844 302.894531 293.101562 303.503906 290.96875 304.800781 C 292.261719 312.417969 291.882812 320.34375 290.054688 327.808594 C 295.386719 328.191406 300.796875 328.191406 306.054688 327.429688 C 307.652344 322.933594 308.109375 317.828125 305.902344 313.410156 Z M 346.664062 296.570312 C 342.398438 291.847656 336.988281 287.582031 330.589844 286.285156 C 326.167969 285.75 321.597656 287.503906 318.246094 290.171875 C 323.273438 297.027344 329.445312 303.429688 331.882812 311.808594 C 332.722656 315.390625 334.246094 319.046875 333.558594 322.78125 C 339.808594 320.191406 345.597656 316.609375 350.78125 312.34375 C 351.921875 306.703125 350.324219 300.761719 346.664062 296.570312 Z M 174.847656 111.648438 C 180.03125 77.589844 147.191406 53.207031 138.125 47.1875 C 125.855469 51.53125 113.589844 56.105469 104.140625 65.171875 C 101.398438 64.484375 102.3125 60.597656 103.914062 59.152344 C 108.027344 55.113281 114.046875 52.828125 117.246094 48.179688 C 101.625 40.5625 85.167969 34.085938 67.71875 32.636719 C 64.214844 32.40625 60.40625 31.949219 57.128906 33.472656 C 55.605469 35.152344 55.605469 37.664062 54.003906 39.417969 C 61.089844 40.484375 67.339844 44.066406 73.511719 47.417969 C 79.683594 51.378906 86.3125 54.886719 91.492188 60.21875 C 94.160156 63.417969 99.113281 66.007812 98.351562 70.808594 C 97.054688 71.875 95.757812 70.808594 94.539062 70.277344 C 87.605469 75.914062 82.503906 83.382812 76.710938 90.085938 C 67.871094 99.6875 60.785156 110.886719 56.0625 123.003906 C 52.328125 130.164062 49.96875 138.011719 49.054688 146.089844 C 49.054688 146.089844 48.292969 149.136719 47.605469 154.089844 C 55.757812 154.699219 61.472656 156.296875 62.007812 156.449219 C 64.140625 157.0625 65.359375 159.269531 64.671875 161.402344 C 64.0625 163.535156 61.855469 164.757812 59.71875 164.070312 C 59.566406 163.996094 54.308594 162.546875 46.84375 162.011719 C 46.691406 164.910156 46.691406 168.03125 46.84375 171.386719 C 51.644531 170.625 54.917969 170.546875 55.378906 170.546875 C 55.378906 170.546875 55.453125 170.546875 55.453125 170.546875 C 57.664062 170.546875 59.414062 172.300781 59.414062 174.507812 C 59.414062 176.71875 57.664062 178.546875 55.53125 178.546875 C 55.378906 178.546875 52.328125 178.625 47.679688 179.386719 C 48.214844 183.042969 49.054688 186.777344 50.195312 190.507812 C 50.273438 190.585938 50.273438 190.585938 50.347656 190.660156 C 55.910156 187.234375 60.40625 185.632812 60.785156 185.480469 C 62.84375 184.71875 65.128906 185.863281 65.890625 187.917969 C 66.652344 189.976562 65.511719 192.261719 63.453125 193.023438 C 63.378906 193.023438 61.242188 193.863281 58.121094 195.460938 C 67.949219 200.566406 79.835938 203.539062 93.703125 201.328125 C 138.503906 194.167969 168.828125 151.042969 174.847656 111.648438 Z M 133.398438 167.878906 C 131.496094 168.488281 130.273438 171.003906 128.066406 171.386719 C 122.960938 172.910156 118.695312 168.488281 117.171875 163.996094 C 115.035156 156.679688 115.644531 148.144531 120.21875 141.820312 C 120.371094 141.898438 120.75 142.125 120.980469 142.203125 C 120.902344 141.972656 120.828125 141.59375 120.828125 141.441406 C 125.246094 138.011719 132.5625 140.527344 134.085938 145.9375 C 136.371094 152.71875 136.980469 160.792969 133.324219 167.195312 C 133.324219 167.347656 133.398438 167.652344 133.398438 167.878906 Z M 79.226562 304.417969 C 80.367188 321.488281 82.121094 339.085938 93.929688 351.050781 C 87.226562 346.628906 82.273438 339.773438 79.453125 332.382812 C 75.796875 325.753906 75.492188 318.058594 75.570312 310.667969 C 75.644531 302.058594 76.636719 293.445312 78.769531 285.140625 C 80.902344 278.054688 81.816406 270.589844 84.558594 263.65625 C 85.398438 260.457031 86.464844 257.332031 87.605469 254.207031 C 87.835938 258.929688 89.207031 265.789062 94.160156 273.257812 C 103.074219 286.589844 78.082031 287.429688 79.226562 304.417969 Z M 176.828125 336.117188 C 176.296875 343.964844 175.382812 351.8125 173.25 359.355469 C 173.097656 360.648438 172.792969 361.792969 172.183594 362.632812 C 166.085938 372.003906 146.960938 364.230469 146.960938 364.230469 C 141.398438 362.785156 135.988281 360.574219 131.953125 356.230469 C 126.769531 350.59375 122.882812 343.886719 119.53125 336.953125 C 119.53125 336.953125 134.390625 361.488281 153.058594 355.699219 C 168.449219 350.972656 175 339.847656 176.828125 336.117188 Z M 120.445312 354.554688 C 121.664062 356.613281 122.960938 358.746094 125.09375 360.039062 C 124.5625 360.039062 124.105469 360.117188 123.570312 360.117188 C 122.046875 358.363281 120.980469 356.535156 120.445312 354.554688 Z M 229.25 357.679688 C 223.535156 362.175781 215.917969 363.316406 208.90625 362.554688 C 203.800781 363.621094 201.898438 363.316406 201.898438 363.316406 C 201.898438 363.316406 201.820312 363.316406 201.820312 363.316406 C 194.660156 362.859375 188.640625 357.832031 186.8125 350.898438 C 185.515625 346.019531 185.058594 341.144531 184.753906 336.191406 C 184.753906 336.191406 192.679688 356.917969 213.632812 351.125 C 234.585938 345.410156 243.574219 339.316406 243.574219 339.316406 C 240.605469 346.628906 236.109375 353.335938 229.25 357.679688 Z M 245.023438 355.851562 C 244.945312 356.003906 244.945312 356.230469 244.871094 356.382812 C 244.71875 356.460938 244.488281 356.535156 244.335938 356.6875 C 244.566406 356.382812 244.792969 356.15625 245.023438 355.851562 Z M 281.976562 306.019531 C 281.824219 305.257812 278.394531 287.046875 271.15625 276.152344 C 263.765625 265.027344 240.300781 277.902344 253.710938 264.644531 C 267.117188 251.386719 260.644531 231.652344 260.644531 231.652344 C 265.289062 243.3125 269.632812 255.121094 272.984375 267.3125 C 276.871094 279.882812 280.453125 292.835938 281.976562 306.019531 Z M 281.976562 306.019531 " fill-opacity="1" fill-rule="nonzero"/></svg>